<svg xmlns="http://www.w3.org/2000/svg" width="143.195" height="402.5" viewBox="0 0 143.195 402.5">
  <g id="pendant" transform="translate(-1250.971 232.169)">
    <line id="Line_4" data-name="Line 4" y2="329.55" transform="translate(1322.57 -232.169)" fill="none" stroke="#000" stroke-width="2"/>
    <g id="shade" transform="translate(1252.133 71.889)">
      <path id="Path_6" data-name="Path 6" d="M1025.536-1032.958c-15.524,17.3-62.41,69.366-62.41,69.366l11.4,28.076H1092.77L1104-963.592l-62.287-69.2h-16.581" transform="translate(-963.126 1032.958)" fill="none" stroke="#000" stroke-width="2"/>
      <path id="Path_7" data-name="Path 7" d="M1026.033-935.242l-6.275-27.972,33.715-69.137h10.29l34.245,69.113-.81,3.917-4.979,24.079Z" transform="translate(-988.683 1032.684)" fill="none" stroke="#000" stroke-width="2"/>
      <line id="Line_5" data-name="Line 5" x2="140.472" transform="translate(0.205 69.39)" fill="none" stroke="#000" stroke-width="2"/>
    </g>
    <g id="bulb" transform="translate(1302.106 97.381)">
      <path id="lightbulb-regular" d="M20.465,0A20.417,20.417,0,0,0,0,20.36,21.116,21.116,0,0,0,4.815,34.188c4.687,3.7,3.7,6.5,4.852,10.361,0,.029.2-.031.205,0H29.779c0-.031,1-.493,1.008-.524,1.148-3.863,1.294-5.878,5.3-9.837A20.73,20.73,0,0,0,40.929,20.36,20.443,20.443,0,0,0,20.465,0ZM34.883,32.589c-3.025,2.488-4.291,6.929-5.92,10.37H11.443c-1.629-3.441-.938-6.683-5.249-10.106-2.379-2.71-3.914-4.848-4.33-12.494C1.523,9.724,11.279,1.925,20.465,1.9c8.314,0,18.378,6.583,18.6,18.464C39.065,23.964,37.255,29.88,34.883,32.589ZM17.31,7.319C12.482,7.51,6.632,12.934,6.632,18.061c0,1.028-.192,1.86.837,1.86s.793-.837.793-1.86c0-5,5.275-8.922,9.049-8.874,1.028,0,1.86.021,1.86-1.007S18.334,7.319,17.31,7.319Z" transform="translate(40.929 58.808) rotate(180)"/>
      <path id="Path_8" data-name="Path 8" d="M1071.128-974.879s-.035-8.725,0-10.641,3.7-4.072,4.542-4.448,8.421-.274,10.518,0,5.032,2.84,5.032,4.448v10.641Z" transform="translate(-1060.463 990.213)" fill="none" stroke="#000" stroke-width="2"/>
    </g>
  </g>
</svg>
